<svg width="167" height="51" viewBox="0 0 167 51" fill="none" xmlns="http://www.w3.org/2000/svg">
<path d="M147.146 20L161 25.9167L147.146 32V25.9167V25.8771V20Z" fill="black"/>
<path d="M8.2796 25.5L2 20.6667M8.2796 25.5L2 30M8.2796 25.5H11.9427M161 25.9167L147.146 20V25.9167V32L161 25.9167ZM161 25.9167L15.0825 25.5M11.9427 25.5L6.7097 21M11.9427 25.5L6.7097 30M11.9427 25.5H15.0825M15.0825 25.5L10.8961 21.5M15.0825 25.5L10.8961 29.5" stroke="#272626" stroke-width="4"/>
<path d="M59.4839 10.5598H65.6344V29.4519C65.6344 31.5731 65.1278 33.4291 64.1145 35.02C63.1107 36.611 61.7045 37.8515 59.8958 38.7416C58.0871 39.6223 55.9801 40.0627 53.5748 40.0627C51.16 40.0627 49.0482 39.6223 47.2395 38.7416C45.4308 37.8515 44.0246 36.611 43.0208 35.02C42.017 33.4291 41.5151 31.5731 41.5151 29.4519V10.5598H47.6657V28.9263C47.6657 30.0342 47.9071 31.0191 48.3901 31.8808C48.8825 32.7426 49.5738 33.4197 50.464 33.9121C51.3541 34.4045 52.3911 34.6507 53.5748 34.6507C54.7679 34.6507 55.8049 34.4045 56.6856 33.9121C57.5757 33.4197 58.2623 32.7426 58.7452 31.8808C59.2376 31.0191 59.4839 30.0342 59.4839 28.9263V10.5598Z" fill="#CD0101"/>
<path d="M19.8216 39.6507V10.5598H25.9722V22.5626H38.458V10.5598H44.5944V39.6507H38.458V27.6337H25.9722V39.6507H19.8216ZM68.181 39.6507V10.5598H79.6583C81.8552 10.5598 83.7302 10.9528 85.2833 11.7388C86.8458 12.5153 88.0342 13.6185 88.8486 15.0484C89.6725 16.4689 90.0844 18.1403 90.0844 20.0626C90.0844 21.9945 89.6677 23.6564 88.8344 25.0484C88.0011 26.431 86.7937 27.4916 85.2122 28.2303C83.6403 28.9689 81.7369 29.3382 79.502 29.3382H71.8174V24.395H78.5077C79.6819 24.395 80.6573 24.234 81.4338 23.9121C82.2104 23.5901 82.788 23.1072 83.1668 22.4632C83.5551 21.8193 83.7492 21.0191 83.7492 20.0626C83.7492 19.0967 83.5551 18.2823 83.1668 17.6195C82.788 16.9566 82.2056 16.4547 81.4196 16.1138C80.6431 15.7634 79.663 15.5882 78.4793 15.5882H74.3316V39.6507H68.181ZM83.8912 26.4121L91.1213 39.6507H84.3316L77.2577 26.4121H83.8912ZM94.431 39.6507V10.5598H100.582V34.5797H113.053V39.6507H94.431ZM132.908 18.9263C132.794 17.7804 132.306 16.8903 131.444 16.2558C130.583 15.6214 129.413 15.3041 127.936 15.3041C126.932 15.3041 126.085 15.4462 125.393 15.7303C124.702 16.0049 124.172 16.3884 123.802 16.8808C123.443 17.3732 123.263 17.932 123.263 18.557C123.244 19.0778 123.353 19.5323 123.589 19.9206C123.836 20.3089 124.172 20.645 124.598 20.9291C125.024 21.2037 125.516 21.4452 126.075 21.6536C126.634 21.8524 127.23 22.0229 127.865 22.1649L130.479 22.7899C131.748 23.074 132.912 23.4528 133.973 23.9263C135.034 24.3998 135.952 24.9821 136.729 25.6734C137.505 26.3647 138.106 27.1791 138.533 28.1166C138.968 29.0541 139.191 30.1289 139.2 31.3411C139.191 33.1214 138.736 34.6649 137.837 35.9717C136.946 37.2691 135.659 38.2776 133.973 38.9973C132.297 39.7075 130.275 40.0626 127.908 40.0626C125.559 40.0626 123.514 39.7028 121.771 38.9831C120.038 38.2634 118.684 37.1981 117.709 35.7871C116.743 34.3666 116.236 32.61 116.189 30.5172H122.141C122.207 31.4926 122.486 32.307 122.979 32.9604C123.48 33.6043 124.148 34.092 124.981 34.4234C125.824 34.7454 126.776 34.9064 127.837 34.9064C128.878 34.9064 129.783 34.7549 130.55 34.4518C131.326 34.1488 131.927 33.7274 132.354 33.1876C132.78 32.6479 132.993 32.0276 132.993 31.3268C132.993 30.6734 132.799 30.1242 132.41 29.6791C132.032 29.234 131.473 28.8553 130.734 28.5428C130.005 28.2303 129.11 27.9462 128.05 27.6905L124.882 26.895C122.429 26.2984 120.493 25.3657 119.072 24.0967C117.652 22.8278 116.946 21.1185 116.956 18.9689C116.946 17.2075 117.415 15.6687 118.362 14.3524C119.319 13.0361 120.63 12.0087 122.297 11.27C123.963 10.5314 125.857 10.1621 127.979 10.1621C130.138 10.1621 132.022 10.5314 133.632 11.27C135.251 12.0087 136.511 13.0361 137.41 14.3524C138.31 15.6687 138.774 17.1933 138.802 18.9263H132.908Z" fill="white"/>
</svg>
